<?xml version="1.0" standalone="no"?>
<!DOCTYPE svg PUBLIC "-//W3C//DTD SVG 1.1//EN" "http://www.w3.org/Graphics/SVG/1.1/DTD/svg11.dtd" >
<svg xmlns="http://www.w3.org/2000/svg">
  <metadata>Created by iconfont</metadata>
  <defs>
  <font id="iconfont" horiz-adv-x="1024">
    <font-face
      font-family="iconfont"
      font-weight="400"
      font-stretch="normal"
      units-per-em="1024"
      ascent="896"
      descent="-128"
    />
      <missing-glyph />
      
      <glyph glyph-name="a-2_arrows_gathering" unicode="&#107;" d="M209.4 754c-18.6 18.6-48.7 18.6-67.2 0-18.6-18.6-18.6-48.7 0-67.3l217.3-217.5H249c-26.2 0-47.5-21.3-47.5-47.6S222.8 374 249 374h167.7c57.1 0 103.4 46.4 103.4 103.5v168c0 26.3-21.3 47.6-47.5 47.6s-47.5-21.3-47.5-47.6V538L209.4 754zM605 223.39999999999998v-110.3c0-26.3-21.3-47.6-47.5-47.6S510 86.89999999999998 510 113.20000000000005V281.1c0 57.2 46.3 103.5 103.4 103.5h167.7c26.2 0 47.5-21.3 47.5-47.6s-21.3-47.6-47.5-47.6H673.5l206.8-207c18.6-18.6 18.6-48.7 0-67.3-18.6-18.6-48.7-18.6-67.2 0L605 223.39999999999998z"  horiz-adv-x="1024" />
      
      <glyph glyph-name="mic_slash" unicode="&#69;" d="M639.1 453.4l165.8 165.8c14.3 14.3 14.9 36.9 1.3 50.5-13.6 13.6-36.2 13-50.5-1.3L220.9 133.5c-14.3-14.3-14.9-36.9-1.3-50.5 13.6-13.6 36.2-13 50.5 1.3l82 82c29.2-16.7 61.6-28.5 96.2-34v-87c0-24.9 20.2-45 45-45 24.9 0 45 20.2 45 45v87C674.4 154 778.5 271.9 778.5 414.1c0 24.9-20.2 45-45 45-24.9 0-45-20.2-45-45C688.4 306.29999999999995 601 219 493.2 219c-26.2 0-51.2 5.2-74 14.6l49.7 49.7c7.9-1.3 16-2.1 24.3-2.1 80.5 0 145.8 65.3 145.8 145.8 0 1.3 0 2.6-0.1 4h0.1v22.4zM359.9 367.70000000000005L637.3 645c-11 69.7-71.3 123-144.1 123-79.5 0-144.1-63.6-145.8-142.6v-194.5h0.1c0-1.3-0.1-2.6-0.1-4 0-21 4.5-41.1 12.5-59.2zM318.8 326.5c-13.2 26.3-20.7 56.1-20.7 87.6 0 24.9-20.2 45-45 45s-45-20.2-45-45c0-56.5 16.4-109.2 44.8-153.5l65.9 65.9z"  horiz-adv-x="1024" />
      
      <glyph glyph-name="check_mark_circle" unicode="&#73;" d="M512 767.8C300 767.8 128.2 596 128.2 384S300 0.20000000000004547 512 0.20000000000004547 895.8 172 895.8 384 724 767.8 512 767.8z m237.2-315.4l-3-3.3-239-235.4c-28-26.9-73.4-28.8-103.9-5.1l-4.1 3.4-120 107.7c-18.2 16.4-18.7 43.4-1.1 60.3 16.5 15.9 43 17.3 61.3 3.9l3.5-2.9 108.8-97.7 227.9 224.4c17.4 17.1 46.4 17.9 64.8 1.7 17.2-15.1 19-39.8 4.8-57z"  horiz-adv-x="1024" />
      
      <glyph glyph-name="a-4_arrows_gathering" unicode="&#74;" d="M142.9 753.4c18.6 18.6 48.7 18.6 67.2 0l164.4-164.5V696.4c0 26.3 21.3 47.6 47.5 47.6s47.5-21.3 47.5-47.6v-167.9c0-57.2-46.3-103.5-103.4-103.5H198.4c-26.2 0-47.5 21.3-47.5 47.6s21.3 47.6 47.5 47.6h110.5l-166 165.9c-18.5 18.6-18.5 48.7 0 67.3z m738.2 0c18.6-18.6 18.6-48.7 0-67.3l-165.9-166h118.2c26.2 0 47.5-21.3 47.5-47.6s-21.3-47.6-47.5-47.6H665.6c-57.1 0-103.4 46.3-103.4 103.5v168c0 26.3 21.3 47.6 47.5 47.6s47.5-21.3 47.5-47.6v-99.7l156.7 156.8c18.5 18.5 48.6 18.5 67.2-0.1zM374.5 179.10000000000002v-117.9c0-26.3 21.3-47.6 47.5-47.6s47.5 21.3 47.5 47.6V229.10000000000002c0 57.2-46.3 103.5-103.4 103.5H198.4c-26.2 0-47.5-21.3-47.5-47.6s21.3-47.6 47.5-47.6h100L142.9 81.89999999999998c-18.6-18.6-18.6-48.7 0-67.3 18.6-18.6 48.7-18.6 67.2 0l164.4 164.5z m215.7 126.6c6.6 6.6 14.7 10.9 23.2 12.8 15.3 9 33.1 14.1 52.2 14.1h167.7c26.2 0 47.5-21.3 47.5-47.6s-21.3-47.6-47.5-47.6H725.6l155.5-155.6c18.6-18.6 18.6-48.7 0-67.3-18.6-18.6-48.7-18.6-67.2 0L657.2 171.39999999999998v-110.2c0-26.3-21.3-47.6-47.5-47.6s-47.5 21.3-47.5 47.6V229.10000000000002c0 20.1 5.7 38.8 15.6 54.7 2 8 6.1 15.6 12.4 21.9z"  horiz-adv-x="1024" />
      
      <glyph glyph-name="audio_reacll" unicode="&#102;" d="M497.8 244c3.6 2.8 7.2 5.6 9.1 6.6 3 1.6 5.8 3.2 8.4 4.7 4.7 2.7 8.8 5.1 13 6.6 44.8 20.3 83.2 6.8 134.4-58.6 32-40.5 40.5-74.3 29.9-105.9-8.5-22.5-27.7-40.5-57.6-58.6-2.1-2.3-19.2-13.5-25.6-15.8-72.5-47.3-241 60.8-362.6 250-121.7 187-153.7 387.5-79.1 437l10.7 6.8 10.7 6.8c38.4 24.8 61.8 36 89.6 31.5s53.3-27 72.5-67.6c42.7-85.6 34.1-126.1-21.3-164.4-4.3-2.3-19.2-11.3-19.2-13.5-12.8-9 8.5-69.8 64-150.9 53.3-85.6 98.1-132.9 113-121.6 1.1-0.1 5.6 3.4 10.1 6.9z m14.4 302.8c0-18-14.6-32.6-32.6-32.6S447 528.8 447 546.8s14.6 32.6 32.6 32.6c18-0.1 32.6-14.7 32.6-32.6z m75.9-32.6c18 0 32.6 14.6 32.6 32.6s-14.6 32.6-32.6 32.6-32.6-14.6-32.6-32.6c0.1-18 14.7-32.6 32.6-32.6z m141.1 32.6c0-18-14.6-32.6-32.6-32.6S664 528.8 664 546.8s14.6 32.6 32.6 32.6c18-0.1 32.6-14.7 32.6-32.6z m70.3 95.4c-10 11.2-27.1 12.1-38.3 2.1-11.2-10-12.1-27.1-2.1-38.3l62.5-69.8-61.5-61.5c-10.6-10.6-10.6-27.8 0-38.4 10.6-10.6 27.8-10.6 38.4 0l97.8 97.8-96.8 108.1z"  horiz-adv-x="1024" />
      
      <glyph glyph-name="a-4_arrows_separation" unicode="&#106;" d="M798.6 767c53.2 0 96.4-43.2 96.4-96.4v-156.3c0-24.5-19.8-44.3-44.3-44.3s-44.3 19.8-44.3 44.3V615.8L647.5 456.9c-17.3-17.3-45.3-17.3-62.6 0-17.3 17.3-17.3 45.3 0 62.6l158.9 158.9H642.3c-24.5 0-44.3 19.8-44.3 44.3 0 24.5 19.8 44.3 44.3 44.3h156.3zM129 670.6c0 53.2 43.2 96.4 96.4 96.4h156.3c24.5 0 44.3-19.8 44.3-44.3 0-24.5-19.8-44.3-44.3-44.3H280.2l158.9-158.9c17.3-17.3 17.3-45.3 0-62.6-17.3-17.3-45.3-17.3-62.6 0L217.6 615.8v-101.5c0-24.5-19.8-44.3-44.3-44.3-24.5 0-44.3 19.8-44.3 44.3V670.6z m310.1-359.5c17.3-17.3 17.3-45.3 0-62.6L280.2 89.60000000000002h101.5c24.5 0 44.3-19.8 44.3-44.3S406.2 1 381.7 1H225.4c-53.2 0-96.4 43.2-96.4 96.4V253.70000000000005c0 24.5 19.8 44.3 44.3 44.3 24.5 0 44.3-19.8 44.3-44.3v-101.5l158.9 158.9c17.3 17.3 45.3 17.3 62.6 0z m145.8 0c17.3 17.3 45.3 17.3 62.6 0l158.9-158.9V253.70000000000005c0 24.5 19.8 44.3 44.3 44.3s44.3-19.8 44.3-44.3v-156.3c0-53.2-43.2-96.4-96.4-96.4H642.3c-24.5 0-44.3 19.8-44.3 44.3s19.8 44.3 44.3 44.3h101.5L584.9 248.5c-17.3 17.3-17.3 45.3 0 62.6z"  horiz-adv-x="1024" />
      
      <glyph glyph-name="circle" unicode="&#105;" d="M512 687.8c41 0 80.8-8 118.2-23.8 36.2-15.3 68.7-37.2 96.6-65.1 27.9-27.9 49.8-60.4 65.1-96.6 15.8-37.4 23.8-77.2 23.8-118.2s-8-80.8-23.8-118.2c-15.3-36.2-37.2-68.7-65.1-96.6-27.9-27.9-60.4-49.8-96.6-65.1-37.4-15.8-77.2-23.8-118.2-23.8s-80.8 8-118.2 23.8c-36.2 15.3-68.7 37.2-96.6 65.1-27.9 27.9-49.8 60.4-65.1 96.6-15.8 37.4-23.8 77.2-23.8 118.2s8 80.8 23.8 118.2c15.3 36.2 37.2 68.7 65.1 96.6 27.9 27.9 60.4 49.8 96.6 65.1 37.4 15.8 77.2 23.8 118.2 23.8m0 80C300 767.8 128.2 596 128.2 384S300 0.20000000000004547 512 0.20000000000004547 895.8 172 895.8 384 724 767.8 512 767.8z"  horiz-adv-x="1024" />
      
      <glyph glyph-name="add_person" unicode="&#104;" d="M910.44977778 687.21777778h-77.02755556v77.02755555c0 21.27644445-17.29422222 38.57066667-38.57066667 38.57066667s-38.57066667-17.29422222-38.57066666-38.57066667v-77.02755555H679.25333333c-21.27644445 0-38.57066667-17.29422222-38.57066666-38.57066667s17.29422222-38.57066667 38.57066666-38.57066666h77.02755556V533.04888889c0-21.27644445 17.29422222-38.57066667 38.57066666-38.57066667s38.57066667 17.29422222 38.57066667 38.57066667v77.02755556h77.02755556c21.27644445 0 38.57066667 17.29422222 38.57066667 38.57066666-0.11377778 21.39022222-17.29422222 38.57066667-38.57066667 38.57066667zM391.62311111 325.97333332999995c91.36355555 0 165.31911111 74.06933333 165.31911111 165.31911112v110.25066666c0 91.36355555-74.06933333 165.31911111-165.31911111 165.31911111s-165.31911111-74.06933333-165.31911111-165.31911111v-110.25066666c0-91.24977778 73.95555555-165.31911111 165.31911111-165.31911112zM589.25511111 245.64622222000003v0.11377778H221.98044445v-0.11377778c-2.16177778 0.11377778-4.43733333 0.11377778-6.59911112 0.11377778-77.48266667 0-140.288-62.80533333-140.288-140.288s62.80533333-140.288 140.288-140.288c2.16177778 0 4.43733333 0.11377778 6.59911112 0.11377778v-0.11377778h367.27466666v0.11377778c74.41066667 3.41333333 133.68888889 64.85333333 133.68888889 140.17422222s-59.27822222 136.76088889-133.68888889 140.17422222z"  horiz-adv-x="1024" />
      
      <glyph glyph-name="menu" unicode="&#108;" d="M512 647.3m-88.4 0a88.4 88.4 0 1 1 176.8 0 88.4 88.4 0 1 1-176.8 0ZM512 117.10000000000002m-88.4 0a88.4 88.4 0 1 1 176.8 0 88.4 88.4 0 1 1-176.8 0ZM512 382.20000000000005m-88.4 0a88.4 88.4 0 1 1 176.8 0 88.4 88.4 0 1 1-176.8 0Z"  horiz-adv-x="1024" />
      
      <glyph glyph-name="phone_down" unicode="&#65;" d="M339.05777778 357.376c-1.25155555-1.93422222 1.36533333-19.91111111 0.91022222-25.03111111-0.91022222-10.24-0.56888889-18.65955555-2.27555555-25.6-7.85066667-51.88266667-42.32533333-78.39288889-130.6168889-86.24355556-54.95466667-5.12-90.112 6.94044445-112.18488888 34.816-15.24622222 20.70755555-20.13866667 48.35555555-19.00088889 85.67466667-0.79644445 3.18577778-0.91022222 25.03111111 0.79644444 32.08533333-0.22755555 92.38755555 194.56 180.45155555 434.74488889 179.31377778 238.13688889 0.11377778 436.224-87.72266667 437.13422222-183.40977778l-0.11377778-13.42577778-0.11377777-13.42577777c-0.11377778-48.81066667-3.64088889-76.34488889-23.89333333-98.53155556-20.13866667-22.18666667-55.18222222-32.08533333-102.62755556-25.6-101.48977778 11.60533333-132.77866667 42.78044445-134.82666667 114.688 0.45511111 5.12 1.024 23.77955555-0.91022222 25.03111111-0.68266667 16.72533333-67.47022222 32.99555555-172.37333333 30.49244445-107.74755555 1.70666667-176.128-10.92266667-174.64888889-30.83377778z"  horiz-adv-x="1024" />
      
      <glyph glyph-name="video_recall" unicode="&#103;" d="M215.36 728.07111111c-50.56 0-91.62666667-41.06666667-91.62666667-91.62666666v-274.88c0-50.56 41.06666667-91.62666667 91.62666667-91.62666667h274.88c50.56 0 91.62666667 41.06666667 91.62666666 91.62666667V636.44444445c0 50.56-41.06666667 91.62666667-91.62666666 91.62666666H215.36z m481.38666666-116.8c-27.52-9.6-45.97333333-35.62666667-45.97333333-64.85333333v-94.93333333c0-29.22666667 18.45333333-55.25333333 45.97333333-64.85333334l76.26666667-26.66666666c29.76-10.45333333 60.90666667 11.73333333 60.90666667 43.2V594.73777778c0 31.57333333-31.14666667 53.65333333-60.90666667 43.2l-76.26666667-26.66666667zM536.10666666 119.43111110999996c0-18.98666667-15.36-34.34666667-34.34666666-34.34666666s-34.34666667 15.36-34.34666667 34.34666666 15.36 34.34666667 34.34666667 34.34666667 34.34666667-15.36 34.34666666-34.34666667z m80.21333334-34.34666666c18.98666667 0 34.34666667 15.36 34.34666666 34.34666666s-15.36 34.34666667-34.34666666 34.34666667c-18.98666667 0-34.34666667-15.36-34.34666667-34.34666667s15.36-34.34666667 34.34666667-34.34666666z m148.90666666 34.34666666c0-18.98666667-15.36-34.34666667-34.34666666-34.34666666-18.98666667 0-34.34666667 15.36-34.34666667 34.34666666s15.36 34.34666667 34.34666667 34.34666667c18.98666667 0 34.34666667-15.36 34.34666666-34.34666667z m74.24 100.8c-10.56 11.73333333-28.69333333 12.8-40.42666666 2.24s-12.8-28.69333333-2.24-40.42666666l66.02666666-73.70666667L797.86666666 43.377777779999974c-11.2-11.2-11.2-29.33333333 0-40.53333333s29.33333333-11.2 40.53333334 0l103.25333333 103.25333333-102.18666667 114.13333333z"  horiz-adv-x="1024" />
      
      <glyph glyph-name="no_add_person" unicode="&#72;" d="M371.52 301.44000000000005H193.81333333v-0.10666667c-2.02666667 0.10666667-4.16 0.10666667-6.18666666 0.10666667-72.64 0-131.41333333-58.88-131.41333334-131.41333333 0-72.64 58.88-131.41333333 131.41333334-131.41333334 2.02666667 0 4.16 0 6.18666666 0.10666667v-0.10666667h204.26666667c-25.92 49.06666667-40.64 104.96-40.64 164.26666667 0.10666667 34.24 4.90666667 67.30666667 14.08 98.56zM709.54666667 461.12c-142.61333333 0-258.13333333-115.62666667-258.13333334-258.13333333s115.62666667-258.13333333 258.13333334-258.13333334 258.13333333 115.62666667 258.13333333 258.13333334-115.52 258.13333333-258.13333333 258.13333333z m-164.26666667-258.24c0 90.77333333 73.6 164.26666667 164.26666667 164.26666667 37.22666667 0 71.68-12.37333333 99.2-33.38666667l-249.92-196.26666667c-8.74666667 20.05333333-13.54666667 42.13333333-13.54666667 65.38666667z m164.26666667-164.26666667c-33.28 0-64.32 9.92-90.24 26.98666667L864.32 258.13333333c6.18666667-17.28 9.49333333-35.84 9.49333333-55.25333333 0-90.66666667-73.49333333-164.26666667-164.26666666-164.26666667zM622.50666667 642.77333333H694.4v-72.53333333c0-19.73333333 16.10666667-35.84 36.05333333-35.84 19.94666667 0 36.05333333 16 36.05333334 35.84v72.53333333H838.4c20.05333333 0 36.37333333 16.10666667 36.37333333 36.05333334 0 19.94666667-16.32 36.05333333-36.37333333 36.05333333h-71.89333333v72.53333333c0 19.73333333-16.10666667 35.84-36.05333334 35.84-19.94666667 0-36.05333333-16-36.05333333-35.84v-72.53333333h-71.89333333c-20.05333333 0-36.37333333-16.10666667-36.37333334-36.05333333 0-19.84 16.21333333-36.05333333 36.37333334-36.05333334zM352.85333333 376.64c85.54666667 0 154.88 69.33333333 154.88 154.88v103.25333333c0 85.54666667-69.33333333 154.88-154.88 154.88s-154.88-69.33333333-154.88-154.88v-103.25333333c-0.10666667-85.54666667 69.33333333-154.88 154.88-154.88z"  horiz-adv-x="1024" />
      
      <glyph glyph-name="x" unicode="&#120;" d="M583.6 384l296.5 296.5c19.8 19.8 19.8 51.8 0 71.6-19.8 19.8-51.8 19.8-71.6 0L512 455.6 215.5 752.2c-19.8 19.8-51.8 19.8-71.6 0s-19.8-51.8 0-71.6L440.4 384 143.8 87.5c-19.8-19.8-19.8-51.8 0-71.6 9.9-9.9 22.8-14.8 35.8-14.8s25.9 4.9 35.8 14.8L512 312.4l296.5-296.5c9.9-9.9 22.8-14.8 35.8-14.8 13 0 25.9 4.9 35.8 14.8 19.8 19.8 19.8 51.8 0 71.6L583.6 384z"  horiz-adv-x="1024" />
      
      <glyph glyph-name="video" unicode="&#99;" d="M179.99644445 661.16266667c-57.57155555 0-104.22044445-46.64888889-104.22044445-104.22044445v-347.24977777c0-57.57155555 46.64888889-104.22044445 104.22044445-104.22044445h347.24977777c57.57155555 0 104.22044445 46.64888889 104.22044445 104.22044445V557.056c0 57.57155555-46.64888889 104.22044445-104.22044445 104.22044445H179.99644445z m574.464-117.41866667c-26.39644445-10.58133333-43.69066667-36.06755555-43.69066667-64.512v-191.71555555c0-28.44444445 17.29422222-53.93066667 43.69066667-64.512l122.99377777-49.152c34.24711111-13.65333333 71.45244445 11.49155555 71.45244445 48.35555555V544.54044445c0 36.864-37.20533333 62.00888889-71.45244445 48.35555555l-122.99377777-49.152z"  horiz-adv-x="1024" />
      
      <glyph glyph-name="no_video" unicode="&#100;" d="M631.35288889 395.15022222V556.9422222200001c0 57.68533333-46.76266667 104.33422222-104.33422222 104.33422223H179.42755555c-57.68533333 0-104.33422222-46.76266667-104.33422222-104.33422223v-347.47733333c0-57.68533333 46.76266667-104.33422222 104.33422222-104.33422222h303.21777778c-3.41333333 16.83911111-5.23377778 34.24711111-5.23377778 52.11022222 0 105.92711111 63.14666667 197.17688889 153.94133334 237.90933333zM877.68177778 592.78222222l-123.10755556-49.26577777c-26.39644445-10.58133333-43.69066667-36.06755555-43.69066667-64.512v-62.57777778c8.98844445 0.91022222 18.09066667 1.36533333 27.30666667 1.36533333 86.69866667 0.11377778 163.49866667-42.32533333 210.944-107.52V544.42666667c0 36.864-37.20533333 62.12266667-71.45244444 48.35555555zM738.07644445 348.27377778000005c-105.58577778 0-191.14666667-85.56088889-191.14666667-191.14666667s85.56088889-191.14666667 191.14666667-191.14666666 191.14666667 85.56088889 191.14666666 191.14666666-85.56088889 191.14666667-191.14666666 191.14666667z m-121.62844445-191.14666667c0 67.12888889 54.38577778 121.62844445 121.62844445 121.62844444 27.648 0 53.13422222-9.216 73.50044444-24.68977777L626.46044445 108.65777777999995c-6.48533333 14.90488889-10.01244445 31.28888889-10.01244445 48.46933333z m121.62844445-121.62844444c-24.68977778 0-47.67288889 7.39555555-66.78755556 20.02488888l181.47555556 142.56355556c4.43733333-12.85688889 6.94044445-26.624 6.94044444-40.96 0-67.24266667-54.49955555-121.62844445-121.62844444-121.62844444z"  horiz-adv-x="1024" />
      
      <glyph glyph-name="video_slash" unicode="&#67;" d="M770.048 660.13866667c15.70133333 15.47377778 15.81511111 40.61866667 0.45511111 56.32-15.47377778 15.70133333-40.61866667 15.81511111-56.32 0.45511111L80.896 93.29777778000005c-15.70133333-15.47377778-15.81511111-40.61866667-0.45511111-56.32 7.73688889-7.96444445 18.09066667-11.83288889 28.33066666-11.83288889 10.12622222 0 20.13866667 3.75466667 27.98933334 11.49155556l70.656 69.632h319.488c57.57155555 0 104.22044445 46.64888889 104.22044444 104.22044444v312.88888889l138.92266667 136.76088889zM543.63022222 660.59377778c-5.46133333 0.91022222-11.03644445 1.36533333-16.72533333 1.36533333H179.65511111v-0.11377778c-57.57155555 0-104.22044445-46.64888889-104.22044444-104.22044444v-347.24977778c0-3.52711111 0.22755555-6.94044445 0.56888888-10.35377778l467.62666667 460.57244445zM877.11288889 593.5786666700001L754.11911111 544.42666667c-26.39644445-10.58133333-43.69066667-36.06755555-43.69066666-64.512v-191.71555556c0-28.44444445 17.29422222-53.93066667 43.69066666-64.512l122.99377778-49.152c34.24711111-13.65333333 71.45244445 11.49155555 71.45244444 48.35555556V545.22311111c0 36.75022222-37.20533333 62.00888889-71.45244444 48.35555556z"  horiz-adv-x="1024" />
      
      <glyph glyph-name="phone" unicode="&#97;" d="M618.9 235.10000000000002c2.3 0.4 14.5 14.9 18.8 18.2 8.6 6.4 14.8 12.5 21.5 16 45.7 30 90.2 21.8 157.7-41.1 42.1-39 57.3-74.6 51-111.1-5.5-26.2-23.5-49.3-53.1-74.2-2-2.8-18.7-18.1-25.4-21.7-71.5-64.5-275.2 25.2-441.3 212-165.7 184.3-235.4 399-162 466.3l10.5 9.3 10.5 9.3c37.9 33.8 61.7 50.2 92.9 50.1 31.2-0.2 63.2-20.5 91.3-61.7 61.6-86.6 59.2-132.6 4.9-184.2-4.3-3.2-19.1-15.7-18.8-18.2-12.5-12.1 21.4-75.2 96.3-154.7 73.4-85 130.7-129.2 145.2-114.3z"  horiz-adv-x="1024" />
      
      <glyph glyph-name="search" unicode="&#109;" d="M885 77.79999999999995L669.5 293.4c35.3 49.2 56.1 109.5 56.1 174.7 0 165.6-134.3 299.9-299.9 299.9S125.8 633.7 125.8 468.1s134.3-299.9 299.9-299.9c67.7 0 130.1 22.4 180.3 60.3l214.8-214.8c17.7-17.7 46.5-17.7 64.2 0s17.7 46.4 0 64.1zM214 468.1c0 116.9 94.8 211.7 211.7 211.7S637.4 585 637.4 468.1c0-116.9-94.8-211.7-211.7-211.7S214 351.20000000000005 214 468.1z"  horiz-adv-x="1024" />
      
      <glyph glyph-name="x_circle" unicode="&#88;" d="M512.3 0.39999999999997726c212 0 383.8 171.8 383.8 383.8S724.3 768 512.3 768 128.5 596.2 128.5 384.2c-0.1-212 171.8-383.8 383.8-383.8zM338.2 471.9c-23.8 23.8-23.8 62.5 0 86.4 23.8 23.8 62.5 23.8 86.4 0l86.4-86.4 86.4 86.4c23.8 23.8 62.5 23.8 86.4 0 23.8-23.8 23.8-62.5 0-86.4l-86.4-86.4 86.4-86.4c23.8-23.8 23.8-62.5 0-86.4-23.8-23.8-62.5-23.8-86.4 0L511 299.1l-86.4-86.4c-23.8-23.8-62.5-23.8-86.4 0-23.8 23.8-23.8 62.5 0 86.4l86.4 86.4-86.4 86.4z"  horiz-adv-x="1024" />
      
      <glyph glyph-name="no_phone" unicode="&#98;" d="M362.3 529.9c-0.3 2.2 13 13.5 16.9 16.4 48.9 46.5 51.1 88-4.4 166.1-25.3 37.2-54.1 55.5-82.3 55.6-28.2 0.1-49.6-14.6-83.8-45.1l-9.5-8.3-9.5-8.3c-66.2-60.7-3.4-254.1 146.1-420.3 16.4-18.7 33.3-36.1 50.3-52.5C393.1 291 418 343 455 383.70000000000005c-2 2.2-3.9 4.5-5.9 6.8-67.5 71.6-98.1 128.5-86.8 139.4zM656.6 400.1c-110.3 0-199.7-89.4-199.7-199.7s89.4-199.7 199.7-199.7 199.7 89.4 199.7 199.7c0 110.4-89.4 199.7-199.7 199.7zM529.4 200.39999999999998c0 70.2 56.9 127.1 127.1 127.1 28.9 0 55.5-9.6 76.8-25.8L539.9 149.79999999999995c-6.7 15.5-10.5 32.6-10.5 50.6z m127.1-127.1c-25.8 0-49.8 7.7-69.8 20.9l189.6 148.9c4.7-13.3 7.3-27.7 7.3-42.7 0-70.2-56.9-127.1-127.1-127.1z"  horiz-adv-x="1024" />
      
      <glyph glyph-name="mic" unicode="&#101;" d="M512 281.1c80.5 0 145.8 65.3 145.8 145.8 0 1.3 0 2.6-0.1 4h0.1V625.3C656.1 704.5 591.5 768 512 768s-144.1-63.6-145.8-142.6v-194.5h0.1c0-1.3-0.1-2.6-0.1-4 0-80.5 65.3-145.8 145.8-145.8zM752.2 459.1c-24.9 0-45-20.2-45-45C707.2 306.29999999999995 619.8 219 512 219s-195.2 87.4-195.2 195.2c0 24.9-20.2 45-45 45-24.9 0-45-20.2-45-45 0-142.2 104.1-260.1 240.2-281.7v-87c0-24.9 20.2-45 45-45 24.9 0 45 20.2 45 45v87C693.2 154 797.2 271.9 797.2 414.1c0 24.9-20.1 45-45 45z"  horiz-adv-x="1024" />
      
    </font>
</defs>
</svg>
